<mxfile host="app.diagrams.net" modified="2023-12-27T03:05:56.421Z" agent="Mozilla/5.0 (Macintosh; Intel Mac OS X 10_15_7) AppleWebKit/537.36 (KHTML, like Gecko) Chrome/120.0.0.0 Safari/537.36" version="22.1.12" etag="czZVUXYsSiVY34wvWpH4" type="github">
  <diagram name="Trang-1" id="pTP3_W0X4AKnCLj__-ja">
    <mxGraphModel>
      <root>
        <mxCell id="0" />
        <mxCell id="1" parent="0" />
      </root>
    </mxGraphModel>
  </diagram>
</mxfile>
